<svg width="149" height="29" viewBox="0 0 149 29" fill="none" xmlns="http://www.w3.org/2000/svg">
<path fill-rule="evenodd" clip-rule="evenodd" d="M135.255 22.0559C133.13 22.0559 129.867 20.6251 129.867 14.4731C129.867 8.32119 133.13 6.89033 135.255 6.89033C137.381 6.89033 140.644 8.32119 140.644 14.4731C140.644 20.6251 137.38 22.0559 135.255 22.0559ZM135.255 0.00382583C127.017 0.00382583 121.515 6.03717 121.515 14.4731C121.515 22.9091 127.017 28.9424 135.255 28.9424C143.495 28.9424 149 22.9104 149 14.4731C149 6.03589 143.494 0.00382583 135.255 0.00382583ZM67.5016 0.531791H60.8769C60.6437 0.531785 60.42 0.62617 60.2545 0.794359C60.0891 0.962547 59.9953 1.19089 59.9936 1.42959V15.6489C59.9936 18.4852 59.9936 22.0279 56.0248 22.0279C51.9488 22.0279 51.9488 18.4852 51.9488 15.6489V1.42959C51.9472 1.19067 51.8532 0.962134 51.6875 0.793909C51.5218 0.625684 51.2977 0.531448 51.0644 0.531791H44.4384C44.2056 0.53179 43.9823 0.626298 43.8174 0.794594C43.6525 0.962891 43.5596 1.19124 43.5589 1.42959V17.5529C43.5589 25.2518 47.676 28.9424 55.9887 28.9424C64.3038 28.9424 68.3798 25.2518 68.3798 17.5529V1.42959C68.3791 1.19146 68.2864 0.963304 68.1218 0.795044C67.9572 0.626784 67.7342 0.532127 67.5016 0.531791ZM94.5672 0.531791H87.9438C87.8281 0.531288 87.7135 0.554111 87.6064 0.598957C87.4994 0.643803 87.402 0.709794 87.3199 0.793162C87.2378 0.876531 87.1725 0.975643 87.1278 1.08484C87.0831 1.19404 87.0598 1.31118 87.0593 1.42959V15.6489C87.0593 18.4852 87.0593 22.0279 83.0954 22.0279C79.012 22.0279 79.012 18.4852 79.012 15.6489V1.42959C79.0117 1.31135 78.9886 1.19434 78.9441 1.08523C78.8996 0.976126 78.8345 0.87706 78.7526 0.793692C78.6707 0.710324 78.5736 0.644286 78.4668 0.599349C78.3599 0.554412 78.2455 0.531456 78.13 0.531791H71.5103C71.2766 0.530774 71.052 0.624751 70.886 0.793085C70.7199 0.961419 70.6259 1.19034 70.6246 1.42959V17.5529C70.6246 25.2518 74.7479 28.9424 83.0568 28.9424C91.3682 28.9424 95.4517 25.2518 95.4517 17.5529V1.42959C95.4512 1.31118 95.4279 1.19404 95.3832 1.08484C95.3385 0.975643 95.2732 0.876531 95.1911 0.793162C95.109 0.709794 95.0116 0.643803 94.9045 0.598957C94.7975 0.554111 94.6829 0.531288 94.5672 0.531791ZM28.8296 0C25.3565 0 22.6234 0.644016 20.6191 1.95755C18.6035 0.644016 15.8629 0 12.3911 0C4.07847 0 0 3.69193 0 11.3882V27.5078C0 28.0077 0.393646 28.4119 0.878229 28.4119H7.50668C7.99251 28.4119 8.38491 28.0077 8.38491 27.509V13.2922C8.38491 10.4522 8.38491 6.91839 12.3538 6.91839C16.4335 6.91839 16.4335 10.4522 16.4335 13.2922V27.5078C16.4335 28.0051 16.8321 28.4107 17.3167 28.4107H23.9414C24.4272 28.4107 24.8221 28.0064 24.8221 27.5078V13.2922C24.8221 10.4522 24.8221 6.91839 28.7885 6.91839C32.8707 6.91839 32.8707 10.4522 32.8707 13.2922V27.5078C32.8707 28.0051 33.2643 28.4107 33.7502 28.4107H40.3749C40.6088 28.4107 40.8331 28.3155 40.9985 28.1462C41.1639 27.9769 41.2568 27.7472 41.2568 27.5078V11.3882C41.2568 3.69193 37.141 0 28.8296 0ZM120.138 0.531791H98.2595C98.0265 0.531452 97.8029 0.625811 97.6377 0.794143C97.4726 0.962476 97.3795 1.19102 97.3788 1.42959V6.74367C97.3788 7.24231 97.7712 7.64019 98.2595 7.64019H105.003V27.5205C105.003 28.0153 105.396 28.4183 105.887 28.4183H112.506C112.74 28.4197 112.965 28.3259 113.131 28.1575C113.298 27.9892 113.392 27.7601 113.394 27.5205V7.64019H120.138C120.624 7.64019 121.016 7.24231 121.016 6.74367V1.42959C121.016 1.19136 120.923 0.963005 120.759 0.794672C120.594 0.626339 120.371 0.531791 120.138 0.531791Z" fill="black"/>
</svg>
